<?xml version="1.0" standalone="no"?>
<!DOCTYPE svg PUBLIC "-//W3C//DTD SVG 20010904//EN"
 "http://www.w3.org/TR/2001/REC-SVG-20010904/DTD/svg10.dtd">
<svg version="1.0" xmlns="http://www.w3.org/2000/svg"
 width="500.000000pt" height="500.000000pt" viewBox="0 0 500.000000 500.000000"
 preserveAspectRatio="xMidYMid meet">

<g transform="translate(0.000000,500.000000) scale(0.100000,-0.100000)"
fill="#000000" stroke="none">
<path d="M1188 3870 c-54 -16 -99 -53 -128 -104 l-30 -51 0 -1210 c0 -1149 1
-1212 19 -1250 23 -51 89 -111 138 -124 56 -16 2572 -15 2624 1 52 15 117 73
140 122 18 39 19 97 19 1246 0 1146 -1 1207 -19 1245 -10 22 -33 54 -51 72
-68 67 10 63 -1404 62 -705 0 -1293 -4 -1308 -9z m984 -764 c65 -13 134 -34
116 -35 -3 -1 -35 6 -70 16 -133 35 -309 17 -436 -44 -54 -26 -166 -126 -206
-183 -15 -22 -14 -21 1 9 65 121 193 206 358 236 94 18 149 18 237 1z m993
-13 c-48 -10 -131 -37 -139 -45 -15 -12 -32 -10 -19 3 14 14 123 48 153 47 20
0 21 -1 5 -5z m-835 -33 c8 -5 11 -10 5 -10 -5 0 -17 5 -25 10 -8 5 -10 10 -5
10 6 0 17 -5 25 -10z m56 -26 c18 -14 18 -14 -6 -3 -31 14 -36 19 -24 19 6 0
19 -7 30 -16z m604 2 c0 -2 -17 -16 -37 -31 l-38 -26 35 30 c34 31 40 35 40
27z m410 -329 c0 -43 -36 -104 -80 -133 -37 -25 -46 -26 -106 -20 -36 4 -80
13 -98 22 -17 8 -22 12 -11 8 128 -38 223 -15 260 63 17 34 17 103 2 148 -4
11 2 2 13 -20 11 -22 20 -53 20 -68z m-869 -365 c-64 -81 -167 -160 -231 -176
-14 -4 -3 5 24 19 63 33 153 105 194 155 42 51 54 53 13 2z"/>
</g>
</svg>
